# xmcd
#
# Track frame offsets: 
#        150
#        26827
#        43342
#        63235
#        69780
#        93102
#        106192
#        115620
#        132520
#        158902
#        172827
#        201145
#        203717
#
# Disc length: 2880 seconds
#
# Revision: 2
# Processed by: cddbd v1.5.2PL0 Copyright (c) Steve Scherf et al.
# Submitted via: ExactAudioCopy v1.0b6
#
DISCID=a70b3e0d
DTITLE=Mercury Rev - Deserter's Songs [1998 V2 (Japan) CD]
DYEAR=1998
DGENRE=Rock
TTITLE0=Holes
TTITLE1=Tonite It Shows
TTITLE2=Endlessly
TTITLE3=I Collect Coins
TTITLE4=Opus 40
TTITLE5=Hudson Line
TTITLE6=The Happy End (The Drunk Room)
TTITLE7=Goddess On A Hiway
TTITLE8=The Funny Bird
TTITLE9=Pick Up If You're There
TTITLE10=Delta Sun Bottleneck Stomp
TTITLE11=Untitled
TTITLE12=Rag Tag
EXTD=YEAR: 1998
EXTT0=
EXTT1=
EXTT2=
EXTT3=
EXTT4=
EXTT5=
EXTT6=
EXTT7=
EXTT8=
EXTT9=
EXTT10=
EXTT11=
EXTT12=
PLAYORDER=
